<svg xmlns="http://www.w3.org/2000/svg" xmlns:xlink="http://www.w3.org/1999/xlink" width="500" zoomAndPan="magnify" viewBox="0 0 375 374.999991" height="500" preserveAspectRatio="xMidYMid meet" version="1.2"><defs><clipPath id="736fa1f556"><path d="M 37.5 37.5 L 337.5 37.5 L 337.5 337.5 L 37.5 337.5 Z M 37.5 37.5 "/></clipPath><clipPath id="a797b7bbad"><path d="M 187.5 37.5 C 104.65625 37.5 37.5 104.65625 37.5 187.5 C 37.5 270.34375 104.65625 337.5 187.5 337.5 C 270.34375 337.5 337.5 270.34375 337.5 187.5 C 337.5 104.65625 270.34375 37.5 187.5 37.5 Z M 187.5 37.5 "/></clipPath><clipPath id="041877a621"><path d="M 77.042969 97.855469 L 300.183594 97.855469 L 300.183594 124.082031 L 77.042969 124.082031 Z M 77.042969 97.855469 "/></clipPath><clipPath id="f88e8c5613"><path d="M 85.292969 97.855469 L 291.855469 97.855469 C 294.042969 97.855469 296.140625 98.722656 297.6875 100.269531 C 299.234375 101.816406 300.105469 103.917969 300.105469 106.105469 L 300.105469 115.832031 C 300.105469 118.019531 299.234375 120.117188 297.6875 121.667969 C 296.140625 123.214844 294.042969 124.082031 291.855469 124.082031 L 85.292969 124.082031 C 83.105469 124.082031 81.003906 123.214844 79.457031 121.667969 C 77.910156 120.117188 77.042969 118.019531 77.042969 115.832031 L 77.042969 106.105469 C 77.042969 103.917969 77.910156 101.816406 79.457031 100.269531 C 81.003906 98.722656 83.105469 97.855469 85.292969 97.855469 Z M 85.292969 97.855469 "/></clipPath></defs><g id="f35e58e69b"><rect x="0" width="375" y="0" height="374.999991" style="fill:#ffffff;fill-opacity:1;stroke:none;"/><rect x="0" width="375" y="0" height="374.999991" style="fill:#000000;fill-opacity:1;stroke:none;"/><g clip-rule="nonzero" clip-path="url(#736fa1f556)"><g clip-rule="nonzero" clip-path="url(#a797b7bbad)"><path style=" stroke:none;fill-rule:nonzero;fill:#ffffff;fill-opacity:1;" d="M 37.5 37.5 L 337.5 37.5 L 337.5 337.5 L 37.5 337.5 Z M 37.5 37.5 "/></g></g><g style="fill:#368f10;fill-opacity:1;"><g transform="translate(77.042123, 316.890251)"><path style="stroke:none" d="M 169.421875 -68.28125 C 169.421875 -43.707031 162.421875 -25.613281 148.421875 -14 C 134.421875 -2.382812 114.28125 3.421875 88 3.421875 C 61.707031 3.421875 41.5625 -2.382812 27.5625 -14 C 13.570312 -25.613281 6.578125 -43.707031 6.578125 -68.28125 L 6.578125 -70.859375 L 65.71875 -70.859375 L 65.71875 -68.5625 C 65.71875 -59.613281 67.382812 -53.234375 70.71875 -49.421875 C 74.050781 -45.617188 79.144531 -43.71875 86 -43.71875 C 92.851562 -43.71875 97.945312 -45.617188 101.28125 -49.421875 C 104.613281 -53.234375 106.28125 -59.613281 106.28125 -68.5625 L 106.28125 -196.5625 L 169.421875 -196.5625 Z M 169.421875 -68.28125 "/></g></g><g clip-rule="nonzero" clip-path="url(#041877a621)"><g clip-rule="nonzero" clip-path="url(#f88e8c5613)"><path style=" stroke:none;fill-rule:nonzero;fill:#368f10;fill-opacity:1;" d="M 77.042969 97.855469 L 300.082031 97.855469 L 300.082031 124.082031 L 77.042969 124.082031 Z M 77.042969 97.855469 "/></g></g></g></svg>